<svg width="17" height="17" viewBox="0 0 17 17" fill="none" xmlns="http://www.w3.org/2000/svg">
<path d="M8.16732 15.0002C4.40065 15.0002 1.33398 11.9335 1.33398 8.16683C1.33398 4.40016 4.40065 1.3335 8.16732 1.3335C11.934 1.3335 15.0007 4.40016 15.0007 8.16683C15.0007 11.9335 11.934 15.0002 8.16732 15.0002ZM8.16732 2.3335C4.94732 2.3335 2.33398 4.9535 2.33398 8.16683C2.33398 11.3802 4.94732 14.0002 8.16732 14.0002C11.3873 14.0002 14.0007 11.3802 14.0007 8.16683C14.0007 4.9535 11.3873 2.3335 8.16732 2.3335Z" fill="#202B21"/>
<path d="M15.1676 15.6666C15.0409 15.6666 14.9143 15.62 14.8143 15.52L13.4809 14.1866C13.2876 13.9933 13.2876 13.6733 13.4809 13.48C13.6743 13.2866 13.9943 13.2866 14.1876 13.48L15.5209 14.8133C15.7143 15.0066 15.7143 15.3266 15.5209 15.52C15.4209 15.62 15.2943 15.6666 15.1676 15.6666Z" fill="#202B21"/>
</svg>
